<svg xmlns="http://www.w3.org/2000/svg" viewBox="0 0 1024 1024" shape-rendering="crispEdges">
<defs>
  <linearGradient id="bg" x1="512" y1="44" x2="512" y2="980" gradientUnits="userSpaceOnUse">
    <stop offset="0%" stop-color="#050505" />
    <stop offset="100%" stop-color="#111111" />
  </linearGradient>
</defs>
<rect x="44" y="44" width="936" height="936" rx="208" fill="url(#bg)" />
<rect x="116" y="138" width="44" height="44" fill="#101010" opacity="1" />
<rect x="160" y="138" width="44" height="44" fill="#101010" opacity="1" />
<rect x="204" y="138" width="44" height="44" fill="#101010" opacity="1" />
<rect x="248" y="138" width="44" height="44" fill="#101010" opacity="1" />
<rect x="292" y="138" width="44" height="44" fill="#101010" opacity="1" />
<rect x="336" y="138" width="44" height="44" fill="#101010" opacity="1" />
<rect x="380" y="138" width="44" height="44" fill="#101010" opacity="1" />
<rect x="424" y="138" width="44" height="44" fill="#101010" opacity="1" />
<rect x="468" y="138" width="44" height="44" fill="#101010" opacity="1" />
<rect x="512" y="138" width="44" height="44" fill="#101010" opacity="1" />
<rect x="556" y="138" width="44" height="44" fill="#101010" opacity="1" />
<rect x="600" y="138" width="44" height="44" fill="#101010" opacity="1" />
<rect x="644" y="138" width="44" height="44" fill="#101010" opacity="1" />
<rect x="688" y="138" width="44" height="44" fill="#101010" opacity="1" />
<rect x="732" y="138" width="44" height="44" fill="#101010" opacity="1" />
<rect x="776" y="138" width="44" height="44" fill="#101010" opacity="1" />
<rect x="820" y="138" width="44" height="44" fill="#101010" opacity="1" />
<rect x="864" y="138" width="44" height="44" fill="#101010" opacity="1" />
<rect x="116" y="182" width="44" height="44" fill="#101010" opacity="1" />
<rect x="160" y="182" width="44" height="44" fill="#d8b0ff" opacity="1" />
<rect x="204" y="182" width="44" height="44" fill="#d8b0ff" opacity="1" />
<rect x="248" y="182" width="44" height="44" fill="#b070e0" opacity="1" />
<rect x="292" y="182" width="44" height="44" fill="#b070e0" opacity="1" />
<rect x="336" y="182" width="44" height="44" fill="#8040c0" opacity="1" />
<rect x="380" y="182" width="44" height="44" fill="#8040c0" opacity="1" />
<rect x="424" y="182" width="44" height="44" fill="#8040c0" opacity="1" />
<rect x="468" y="182" width="44" height="44" fill="#8040c0" opacity="1" />
<rect x="512" y="182" width="44" height="44" fill="#8040c0" opacity="1" />
<rect x="556" y="182" width="44" height="44" fill="#8040c0" opacity="1" />
<rect x="600" y="182" width="44" height="44" fill="#8040c0" opacity="1" />
<rect x="644" y="182" width="44" height="44" fill="#582098" opacity="0.9" />
<rect x="688" y="182" width="44" height="44" fill="#8040c0" opacity="0.9" />
<rect x="732" y="182" width="44" height="44" fill="#582098" opacity="0.9" />
<rect x="776" y="182" width="44" height="44" fill="#582098" opacity="1" />
<rect x="820" y="182" width="44" height="44" fill="#582098" opacity="1" />
<rect x="864" y="182" width="44" height="44" fill="#101010" opacity="1" />
<rect x="116" y="226" width="44" height="44" fill="#101010" opacity="1" />
<rect x="160" y="226" width="44" height="44" fill="#d8b0ff" opacity="1" />
<rect x="204" y="226" width="44" height="44" fill="#d8b0ff" opacity="1" />
<rect x="248" y="226" width="44" height="44" fill="#b070e0" opacity="1" />
<rect x="292" y="226" width="44" height="44" fill="#b070e0" opacity="1" />
<rect x="336" y="226" width="44" height="44" fill="#8040c0" opacity="1" />
<rect x="380" y="226" width="44" height="44" fill="#8040c0" opacity="1" />
<rect x="424" y="226" width="44" height="44" fill="#8040c0" opacity="1" />
<rect x="468" y="226" width="44" height="44" fill="#8040c0" opacity="1" />
<rect x="512" y="226" width="44" height="44" fill="#8040c0" opacity="1" />
<rect x="556" y="226" width="44" height="44" fill="#8040c0" opacity="1" />
<rect x="600" y="226" width="44" height="44" fill="#8040c0" opacity="1" />
<rect x="644" y="226" width="44" height="44" fill="#582098" opacity="0.9" />
<rect x="688" y="226" width="44" height="44" fill="#8040c0" opacity="0.9" />
<rect x="732" y="226" width="44" height="44" fill="#582098" opacity="0.9" />
<rect x="776" y="226" width="44" height="44" fill="#582098" opacity="1" />
<rect x="820" y="226" width="44" height="44" fill="#582098" opacity="1" />
<rect x="864" y="226" width="44" height="44" fill="#101010" opacity="1" />
<rect x="116" y="270" width="44" height="44" fill="#101010" opacity="1" />
<rect x="160" y="270" width="44" height="44" fill="#101010" opacity="1" />
<rect x="204" y="270" width="44" height="44" fill="#101010" opacity="1" />
<rect x="248" y="270" width="44" height="44" fill="#101010" opacity="1" />
<rect x="292" y="270" width="44" height="44" fill="#101010" opacity="1" />
<rect x="336" y="270" width="44" height="44" fill="#101010" opacity="1" />
<rect x="380" y="270" width="44" height="44" fill="#101010" opacity="1" />
<rect x="424" y="270" width="44" height="44" fill="#101010" opacity="1" />
<rect x="468" y="270" width="44" height="44" fill="#101010" opacity="1" />
<rect x="512" y="270" width="44" height="44" fill="#101010" opacity="1" />
<rect x="556" y="270" width="44" height="44" fill="#101010" opacity="1" />
<rect x="600" y="270" width="44" height="44" fill="#101010" opacity="1" />
<rect x="644" y="270" width="44" height="44" fill="#101010" opacity="1" />
<rect x="688" y="270" width="44" height="44" fill="#101010" opacity="1" />
<rect x="732" y="270" width="44" height="44" fill="#101010" opacity="1" />
<rect x="776" y="270" width="44" height="44" fill="#101010" opacity="1" />
<rect x="820" y="270" width="44" height="44" fill="#101010" opacity="1" />
<rect x="864" y="270" width="44" height="44" fill="#101010" opacity="1" />
<rect x="204" y="314" width="44" height="44" fill="#101010" opacity="1" />
<rect x="248" y="314" width="44" height="44" fill="#d8b0ff" opacity="1" />
<rect x="292" y="314" width="44" height="44" fill="#b070e0" opacity="1" />
<rect x="336" y="314" width="44" height="44" fill="#b070e0" opacity="1" />
<rect x="380" y="314" width="44" height="44" fill="#8040c0" opacity="1" />
<rect x="424" y="314" width="44" height="44" fill="#8040c0" opacity="1" />
<rect x="468" y="314" width="44" height="44" fill="#8040c0" opacity="1" />
<rect x="512" y="314" width="44" height="44" fill="#8040c0" opacity="1" />
<rect x="556" y="314" width="44" height="44" fill="#8040c0" opacity="1" />
<rect x="600" y="314" width="44" height="44" fill="#8040c0" opacity="0.9" />
<rect x="644" y="314" width="44" height="44" fill="#582098" opacity="0.9" />
<rect x="688" y="314" width="44" height="44" fill="#8040c0" opacity="0.9" />
<rect x="732" y="314" width="44" height="44" fill="#582098" opacity="1" />
<rect x="776" y="314" width="44" height="44" fill="#101010" opacity="1" />
<rect x="204" y="358" width="44" height="44" fill="#101010" opacity="1" />
<rect x="248" y="358" width="44" height="44" fill="#d8b0ff" opacity="1" />
<rect x="292" y="358" width="44" height="44" fill="#b070e0" opacity="1" />
<rect x="336" y="358" width="44" height="44" fill="#b070e0" opacity="1" />
<rect x="380" y="358" width="44" height="44" fill="#8040c0" opacity="1" />
<rect x="424" y="358" width="44" height="44" fill="#8040c0" opacity="1" />
<rect x="468" y="358" width="44" height="44" fill="#8040c0" opacity="1" />
<rect x="512" y="358" width="44" height="44" fill="#8040c0" opacity="1" />
<rect x="556" y="358" width="44" height="44" fill="#8040c0" opacity="1" />
<rect x="600" y="358" width="44" height="44" fill="#8040c0" opacity="0.9" />
<rect x="644" y="358" width="44" height="44" fill="#582098" opacity="0.9" />
<rect x="688" y="358" width="44" height="44" fill="#8040c0" opacity="0.9" />
<rect x="732" y="358" width="44" height="44" fill="#582098" opacity="1" />
<rect x="776" y="358" width="44" height="44" fill="#101010" opacity="1" />
<rect x="204" y="402" width="44" height="44" fill="#101010" opacity="1" />
<rect x="248" y="402" width="44" height="44" fill="#d8b0ff" opacity="1" />
<rect x="292" y="402" width="44" height="44" fill="#b070e0" opacity="1" />
<rect x="336" y="402" width="44" height="44" fill="#b070e0" opacity="1" />
<rect x="380" y="402" width="44" height="44" fill="#8040c0" opacity="1" />
<rect x="424" y="402" width="44" height="44" fill="#8040c0" opacity="1" />
<rect x="468" y="402" width="44" height="44" fill="#8040c0" opacity="1" />
<rect x="512" y="402" width="44" height="44" fill="#8040c0" opacity="1" />
<rect x="556" y="402" width="44" height="44" fill="#8040c0" opacity="1" />
<rect x="600" y="402" width="44" height="44" fill="#8040c0" opacity="0.9" />
<rect x="644" y="402" width="44" height="44" fill="#582098" opacity="0.9" />
<rect x="688" y="402" width="44" height="44" fill="#8040c0" opacity="0.9" />
<rect x="732" y="402" width="44" height="44" fill="#582098" opacity="1" />
<rect x="776" y="402" width="44" height="44" fill="#101010" opacity="1" />
<rect x="204" y="446" width="44" height="44" fill="#101010" opacity="1" />
<rect x="248" y="446" width="44" height="44" fill="#d8b0ff" opacity="1" />
<rect x="292" y="446" width="44" height="44" fill="#b070e0" opacity="1" />
<rect x="336" y="446" width="44" height="44" fill="#b070e0" opacity="1" />
<rect x="380" y="446" width="44" height="44" fill="#8040c0" opacity="1" />
<rect x="424" y="446" width="44" height="44" fill="#8040c0" opacity="1" />
<rect x="468" y="446" width="44" height="44" fill="#8040c0" opacity="1" />
<rect x="512" y="446" width="44" height="44" fill="#8040c0" opacity="1" />
<rect x="556" y="446" width="44" height="44" fill="#8040c0" opacity="1" />
<rect x="600" y="446" width="44" height="44" fill="#8040c0" opacity="0.9" />
<rect x="644" y="446" width="44" height="44" fill="#582098" opacity="0.9" />
<rect x="688" y="446" width="44" height="44" fill="#8040c0" opacity="0.9" />
<rect x="732" y="446" width="44" height="44" fill="#582098" opacity="1" />
<rect x="776" y="446" width="44" height="44" fill="#101010" opacity="1" />
<rect x="204" y="490" width="44" height="44" fill="#101010" opacity="1" />
<rect x="248" y="490" width="44" height="44" fill="#d8b0ff" opacity="1" />
<rect x="292" y="490" width="44" height="44" fill="#b070e0" opacity="1" />
<rect x="336" y="490" width="44" height="44" fill="#b070e0" opacity="1" />
<rect x="380" y="490" width="44" height="44" fill="#8040c0" opacity="1" />
<rect x="424" y="490" width="44" height="44" fill="#8040c0" opacity="1" />
<rect x="468" y="490" width="44" height="44" fill="#8040c0" opacity="1" />
<rect x="512" y="490" width="44" height="44" fill="#8040c0" opacity="1" />
<rect x="556" y="490" width="44" height="44" fill="#8040c0" opacity="1" />
<rect x="600" y="490" width="44" height="44" fill="#8040c0" opacity="0.9" />
<rect x="644" y="490" width="44" height="44" fill="#582098" opacity="0.9" />
<rect x="688" y="490" width="44" height="44" fill="#8040c0" opacity="0.9" />
<rect x="732" y="490" width="44" height="44" fill="#582098" opacity="1" />
<rect x="776" y="490" width="44" height="44" fill="#101010" opacity="1" />
<rect x="204" y="534" width="44" height="44" fill="#101010" opacity="1" />
<rect x="248" y="534" width="44" height="44" fill="#d8b0ff" opacity="1" />
<rect x="292" y="534" width="44" height="44" fill="#b070e0" opacity="1" />
<rect x="336" y="534" width="44" height="44" fill="#b070e0" opacity="1" />
<rect x="380" y="534" width="44" height="44" fill="#8040c0" opacity="1" />
<rect x="424" y="534" width="44" height="44" fill="#8040c0" opacity="1" />
<rect x="468" y="534" width="44" height="44" fill="#8040c0" opacity="1" />
<rect x="512" y="534" width="44" height="44" fill="#8040c0" opacity="1" />
<rect x="556" y="534" width="44" height="44" fill="#8040c0" opacity="1" />
<rect x="600" y="534" width="44" height="44" fill="#8040c0" opacity="0.9" />
<rect x="644" y="534" width="44" height="44" fill="#582098" opacity="0.9" />
<rect x="688" y="534" width="44" height="44" fill="#8040c0" opacity="0.9" />
<rect x="732" y="534" width="44" height="44" fill="#582098" opacity="1" />
<rect x="776" y="534" width="44" height="44" fill="#101010" opacity="1" />
<rect x="204" y="578" width="44" height="44" fill="#101010" opacity="1" />
<rect x="248" y="578" width="44" height="44" fill="#d8b0ff" opacity="1" />
<rect x="292" y="578" width="44" height="44" fill="#b070e0" opacity="1" />
<rect x="336" y="578" width="44" height="44" fill="#b070e0" opacity="1" />
<rect x="380" y="578" width="44" height="44" fill="#8040c0" opacity="1" />
<rect x="424" y="578" width="44" height="44" fill="#8040c0" opacity="1" />
<rect x="468" y="578" width="44" height="44" fill="#8040c0" opacity="1" />
<rect x="512" y="578" width="44" height="44" fill="#8040c0" opacity="1" />
<rect x="556" y="578" width="44" height="44" fill="#8040c0" opacity="1" />
<rect x="600" y="578" width="44" height="44" fill="#8040c0" opacity="0.9" />
<rect x="644" y="578" width="44" height="44" fill="#582098" opacity="0.9" />
<rect x="688" y="578" width="44" height="44" fill="#8040c0" opacity="0.9" />
<rect x="732" y="578" width="44" height="44" fill="#582098" opacity="1" />
<rect x="776" y="578" width="44" height="44" fill="#101010" opacity="1" />
<rect x="204" y="622" width="44" height="44" fill="#101010" opacity="1" />
<rect x="248" y="622" width="44" height="44" fill="#d8b0ff" opacity="1" />
<rect x="292" y="622" width="44" height="44" fill="#b070e0" opacity="1" />
<rect x="336" y="622" width="44" height="44" fill="#b070e0" opacity="1" />
<rect x="380" y="622" width="44" height="44" fill="#8040c0" opacity="1" />
<rect x="424" y="622" width="44" height="44" fill="#8040c0" opacity="1" />
<rect x="468" y="622" width="44" height="44" fill="#8040c0" opacity="1" />
<rect x="512" y="622" width="44" height="44" fill="#8040c0" opacity="1" />
<rect x="556" y="622" width="44" height="44" fill="#8040c0" opacity="1" />
<rect x="600" y="622" width="44" height="44" fill="#8040c0" opacity="0.9" />
<rect x="644" y="622" width="44" height="44" fill="#582098" opacity="0.9" />
<rect x="688" y="622" width="44" height="44" fill="#8040c0" opacity="0.9" />
<rect x="732" y="622" width="44" height="44" fill="#582098" opacity="1" />
<rect x="776" y="622" width="44" height="44" fill="#101010" opacity="1" />
<rect x="204" y="666" width="44" height="44" fill="#101010" opacity="1" />
<rect x="248" y="666" width="44" height="44" fill="#d8b0ff" opacity="1" />
<rect x="292" y="666" width="44" height="44" fill="#b070e0" opacity="1" />
<rect x="336" y="666" width="44" height="44" fill="#b070e0" opacity="1" />
<rect x="380" y="666" width="44" height="44" fill="#8040c0" opacity="1" />
<rect x="424" y="666" width="44" height="44" fill="#8040c0" opacity="1" />
<rect x="468" y="666" width="44" height="44" fill="#8040c0" opacity="1" />
<rect x="512" y="666" width="44" height="44" fill="#8040c0" opacity="1" />
<rect x="556" y="666" width="44" height="44" fill="#8040c0" opacity="1" />
<rect x="600" y="666" width="44" height="44" fill="#8040c0" opacity="0.9" />
<rect x="644" y="666" width="44" height="44" fill="#582098" opacity="0.9" />
<rect x="688" y="666" width="44" height="44" fill="#8040c0" opacity="0.9" />
<rect x="732" y="666" width="44" height="44" fill="#582098" opacity="1" />
<rect x="776" y="666" width="44" height="44" fill="#101010" opacity="1" />
<rect x="204" y="710" width="44" height="44" fill="#101010" opacity="1" />
<rect x="248" y="710" width="44" height="44" fill="#d8b0ff" opacity="1" />
<rect x="292" y="710" width="44" height="44" fill="#b070e0" opacity="1" />
<rect x="336" y="710" width="44" height="44" fill="#b070e0" opacity="1" />
<rect x="380" y="710" width="44" height="44" fill="#8040c0" opacity="1" />
<rect x="424" y="710" width="44" height="44" fill="#8040c0" opacity="1" />
<rect x="468" y="710" width="44" height="44" fill="#8040c0" opacity="1" />
<rect x="512" y="710" width="44" height="44" fill="#8040c0" opacity="1" />
<rect x="556" y="710" width="44" height="44" fill="#8040c0" opacity="1" />
<rect x="600" y="710" width="44" height="44" fill="#8040c0" opacity="0.9" />
<rect x="644" y="710" width="44" height="44" fill="#582098" opacity="0.9" />
<rect x="688" y="710" width="44" height="44" fill="#8040c0" opacity="0.9" />
<rect x="732" y="710" width="44" height="44" fill="#582098" opacity="1" />
<rect x="776" y="710" width="44" height="44" fill="#101010" opacity="1" />
<rect x="204" y="754" width="44" height="44" fill="#101010" opacity="1" />
<rect x="248" y="754" width="44" height="44" fill="#d8b0ff" opacity="1" />
<rect x="292" y="754" width="44" height="44" fill="#b070e0" opacity="1" />
<rect x="336" y="754" width="44" height="44" fill="#b070e0" opacity="1" />
<rect x="380" y="754" width="44" height="44" fill="#8040c0" opacity="1" />
<rect x="424" y="754" width="44" height="44" fill="#8040c0" opacity="1" />
<rect x="468" y="754" width="44" height="44" fill="#8040c0" opacity="1" />
<rect x="512" y="754" width="44" height="44" fill="#8040c0" opacity="1" />
<rect x="556" y="754" width="44" height="44" fill="#8040c0" opacity="1" />
<rect x="600" y="754" width="44" height="44" fill="#8040c0" opacity="0.9" />
<rect x="644" y="754" width="44" height="44" fill="#582098" opacity="0.9" />
<rect x="688" y="754" width="44" height="44" fill="#8040c0" opacity="0.9" />
<rect x="732" y="754" width="44" height="44" fill="#582098" opacity="1" />
<rect x="776" y="754" width="44" height="44" fill="#101010" opacity="1" />
<rect x="204" y="798" width="44" height="44" fill="#101010" opacity="1" />
<rect x="248" y="798" width="44" height="44" fill="#d8b0ff" opacity="1" />
<rect x="292" y="798" width="44" height="44" fill="#b070e0" opacity="1" />
<rect x="336" y="798" width="44" height="44" fill="#b070e0" opacity="1" />
<rect x="380" y="798" width="44" height="44" fill="#8040c0" opacity="1" />
<rect x="424" y="798" width="44" height="44" fill="#8040c0" opacity="1" />
<rect x="468" y="798" width="44" height="44" fill="#8040c0" opacity="1" />
<rect x="512" y="798" width="44" height="44" fill="#8040c0" opacity="1" />
<rect x="556" y="798" width="44" height="44" fill="#8040c0" opacity="1" />
<rect x="600" y="798" width="44" height="44" fill="#8040c0" opacity="0.9" />
<rect x="644" y="798" width="44" height="44" fill="#582098" opacity="0.9" />
<rect x="688" y="798" width="44" height="44" fill="#8040c0" opacity="0.9" />
<rect x="732" y="798" width="44" height="44" fill="#582098" opacity="1" />
<rect x="776" y="798" width="44" height="44" fill="#101010" opacity="1" />
<rect x="204" y="842" width="44" height="44" fill="#101010" opacity="1" />
<rect x="248" y="842" width="44" height="44" fill="#d8b0ff" opacity="1" />
<rect x="292" y="842" width="44" height="44" fill="#b070e0" opacity="1" />
<rect x="336" y="842" width="44" height="44" fill="#b070e0" opacity="1" />
<rect x="380" y="842" width="44" height="44" fill="#8040c0" opacity="1" />
<rect x="424" y="842" width="44" height="44" fill="#8040c0" opacity="1" />
<rect x="468" y="842" width="44" height="44" fill="#8040c0" opacity="1" />
<rect x="512" y="842" width="44" height="44" fill="#8040c0" opacity="1" />
<rect x="556" y="842" width="44" height="44" fill="#8040c0" opacity="1" />
<rect x="600" y="842" width="44" height="44" fill="#8040c0" opacity="0.9" />
<rect x="644" y="842" width="44" height="44" fill="#582098" opacity="0.9" />
<rect x="688" y="842" width="44" height="44" fill="#8040c0" opacity="0.9" />
<rect x="732" y="842" width="44" height="44" fill="#582098" opacity="1" />
<rect x="776" y="842" width="44" height="44" fill="#101010" opacity="1" />
</svg>
